<svg xmlns="http://www.w3.org/2000/svg" version="1.1" xmlns:xlink="http://www.w3.org/1999/xlink" xmlns:svgjs="http://svgjs.dev/svgjs" viewBox="0 0 800 800"><defs><linearGradient x1="50%" y1="0%" x2="50%" y2="100%" id="ffflurry-grad" gradientTransform="rotate(270)"><stop stop-color="#6e32ac" stop-opacity="1" offset="0%"></stop><stop stop-color="hsl(105, 69%, 40%)" stop-opacity="1" offset="45%"></stop><stop stop-color="#93C64F" stop-opacity="1" offset="100%"></stop></linearGradient></defs><rect width="100%" height="100%" fill="#6e32ac"></rect><g fill="url(#ffflurry-grad)"><rect width="132" height="5" x="131" y="771.5" rx="2.5" transform="rotate(54, 197, 774)" opacity="0.20"></rect><rect width="319" height="5" x="604.5" y="380.5" rx="2.5" transform="rotate(54, 764, 383)" opacity="0.47"></rect><rect width="266" height="5" x="199" y="466.5" rx="2.5" transform="rotate(54, 332, 469)" opacity="0.96"></rect><rect width="247" height="5" x="-13.5" y="754.5" rx="2.5" transform="rotate(54, 110, 757)" opacity="0.72"></rect><rect width="311" height="5" x="515.5" y="203.5" rx="2.5" transform="rotate(54, 671, 206)" opacity="0.26"></rect><rect width="176" height="5" x="159" y="103.5" rx="2.5" transform="rotate(54, 247, 106)" opacity="0.33"></rect><rect width="230" height="5" x="-35" y="124.5" rx="2.5" transform="rotate(54, 80, 127)" opacity="0.32"></rect><rect width="159" height="5" x="680.5" y="705.5" rx="2.5" transform="rotate(54, 760, 708)" opacity="0.64"></rect><rect width="357" height="5" x="36.5" y="326.5" rx="2.5" transform="rotate(54, 215, 329)" opacity="0.87"></rect><rect width="259" height="5" x="399.5" y="474.5" rx="2.5" transform="rotate(54, 529, 477)" opacity="0.38"></rect><rect width="319" height="5" x="218.5" y="32.5" rx="2.5" transform="rotate(54, 378, 35)" opacity="0.63"></rect><rect width="225" height="5" x="605.5" y="767.5" rx="2.5" transform="rotate(54, 718, 770)" opacity="0.08"></rect><rect width="432" height="5" x="202" y="181.5" rx="2.5" transform="rotate(54, 418, 184)" opacity="0.65"></rect><rect width="112" height="5" x="275" y="605.5" rx="2.5" transform="rotate(54, 331, 608)" opacity="0.40"></rect><rect width="272" height="5" x="55" y="470.5" rx="2.5" transform="rotate(54, 191, 473)" opacity="0.94"></rect><rect width="193" height="5" x="597.5" y="278.5" rx="2.5" transform="rotate(54, 694, 281)" opacity="0.40"></rect><rect width="217" height="5" x="228.5" y="262.5" rx="2.5" transform="rotate(54, 337, 265)" opacity="0.86"></rect><rect width="234" height="5" x="492" y="239.5" rx="2.5" transform="rotate(54, 609, 242)" opacity="0.16"></rect><rect width="362" height="5" x="-92" y="35.5" rx="2.5" transform="rotate(54, 89, 38)" opacity="0.50"></rect><rect width="229" height="5" x="-67.5" y="564.5" rx="2.5" transform="rotate(54, 47, 567)" opacity="0.77"></rect><rect width="215" height="5" x="162.5" y="596.5" rx="2.5" transform="rotate(54, 270, 599)" opacity="0.10"></rect><rect width="162" height="5" x="315" y="452.5" rx="2.5" transform="rotate(54, 396, 455)" opacity="0.23"></rect><rect width="96" height="5" x="112" y="715.5" rx="2.5" transform="rotate(54, 160, 718)" opacity="0.36"></rect><rect width="69" height="5" x="430.5" y="63.5" rx="2.5" transform="rotate(54, 465, 66)" opacity="0.35"></rect><rect width="71" height="5" x="140.5" y="395.5" rx="2.5" transform="rotate(54, 176, 398)" opacity="0.88"></rect><rect width="198" height="5" x="-70" y="375.5" rx="2.5" transform="rotate(54, 29, 378)" opacity="0.82"></rect><rect width="219" height="5" x="646.5" y="574.5" rx="2.5" transform="rotate(54, 756, 577)" opacity="0.10"></rect><rect width="334" height="5" x="-40" y="528.5" rx="2.5" transform="rotate(54, 127, 531)" opacity="0.31"></rect><rect width="366" height="5" x="-72" y="630.5" rx="2.5" transform="rotate(54, 111, 633)" opacity="0.74"></rect><rect width="283" height="5" x="-35.5" y="215.5" rx="2.5" transform="rotate(54, 106, 218)" opacity="0.75"></rect><rect width="410" height="5" x="111" y="181.5" rx="2.5" transform="rotate(54, 316, 184)" opacity="0.81"></rect><rect width="94" height="5" x="718" y="261.5" rx="2.5" transform="rotate(54, 765, 264)" opacity="0.21"></rect><rect width="359" height="5" x="447.5" y="112.5" rx="2.5" transform="rotate(54, 627, 115)" opacity="0.99"></rect><rect width="57" height="5" x="538.5" y="291.5" rx="2.5" transform="rotate(54, 567, 294)" opacity="0.97"></rect><rect width="28" height="5" x="63" y="468.5" rx="2.5" transform="rotate(54, 77, 471)" opacity="0.93"></rect><rect width="90" height="5" x="439" y="755.5" rx="2.5" transform="rotate(54, 484, 758)" opacity="0.48"></rect><rect width="348" height="5" x="541" y="156.5" rx="2.5" transform="rotate(54, 715, 159)" opacity="0.80"></rect><rect width="198" height="5" x="398" y="312.5" rx="2.5" transform="rotate(54, 497, 315)" opacity="0.86"></rect><rect width="166" height="5" x="459" y="542.5" rx="2.5" transform="rotate(54, 542, 545)" opacity="0.40"></rect><rect width="201" height="5" x="532.5" y="775.5" rx="2.5" transform="rotate(54, 633, 778)" opacity="0.64"></rect><rect width="250" height="5" x="-102" y="485.5" rx="2.5" transform="rotate(54, 23, 488)" opacity="0.21"></rect><rect width="63" height="5" x="108.5" y="98.5" rx="2.5" transform="rotate(54, 140, 101)" opacity="0.42"></rect><rect width="110" height="5" x="235" y="742.5" rx="2.5" transform="rotate(54, 290, 745)" opacity="0.42"></rect><rect width="69" height="5" x="447.5" y="473.5" rx="2.5" transform="rotate(54, 482, 476)" opacity="0.99"></rect><rect width="306" height="5" x="613" y="36.5" rx="2.5" transform="rotate(54, 766, 39)" opacity="0.63"></rect><rect width="271" height="5" x="31.5" y="272.5" rx="2.5" transform="rotate(54, 167, 275)" opacity="0.64"></rect><rect width="95" height="5" x="441.5" y="232.5" rx="2.5" transform="rotate(54, 489, 235)" opacity="0.20"></rect><rect width="339" height="5" x="169.5" y="543.5" rx="2.5" transform="rotate(54, 339, 546)" opacity="0.22"></rect><rect width="113" height="5" x="590.5" y="711.5" rx="2.5" transform="rotate(54, 647, 714)" opacity="0.09"></rect><rect width="257" height="5" x="460.5" y="502.5" rx="2.5" transform="rotate(54, 589, 505)" opacity="0.19"></rect><rect width="373" height="5" x="503.5" y="624.5" rx="2.5" transform="rotate(54, 690, 627)" opacity="0.46"></rect><rect width="180" height="5" x="165" y="406.5" rx="2.5" transform="rotate(54, 255, 409)" opacity="0.27"></rect><rect width="214" height="5" x="468" y="38.5" rx="2.5" transform="rotate(54, 575, 41)" opacity="0.30"></rect><rect width="407" height="5" x="490.5" y="51.5" rx="2.5" transform="rotate(54, 694, 54)" opacity="0.20"></rect><rect width="63" height="5" x="376.5" y="521.5" rx="2.5" transform="rotate(54, 408, 524)" opacity="0.17"></rect><rect width="257" height="5" x="630.5" y="485.5" rx="2.5" transform="rotate(54, 759, 488)" opacity="0.34"></rect><rect width="175" height="5" x="565.5" y="522.5" rx="2.5" transform="rotate(54, 653, 525)" opacity="0.99"></rect><rect width="383" height="5" x="-79.5" y="345.5" rx="2.5" transform="rotate(54, 112, 348)" opacity="0.71"></rect><rect width="69" height="5" x="3.5" y="767.5" rx="2.5" transform="rotate(54, 38, 770)" opacity="0.26"></rect><rect width="210" height="5" x="178" y="319.5" rx="2.5" transform="rotate(54, 283, 322)" opacity="0.59"></rect><rect width="74" height="5" x="175" y="194.5" rx="2.5" transform="rotate(54, 212, 197)" opacity="0.71"></rect><rect width="253" height="5" x="570.5" y="343.5" rx="2.5" transform="rotate(54, 697, 346)" opacity="0.66"></rect><rect width="282" height="5" x="346" y="658.5" rx="2.5" transform="rotate(54, 487, 661)" opacity="0.19"></rect><rect width="209" height="5" x="427.5" y="372.5" rx="2.5" transform="rotate(54, 532, 375)" opacity="0.49"></rect><rect width="52" height="5" x="144" y="32.5" rx="2.5" transform="rotate(54, 170, 35)" opacity="0.98"></rect><rect width="173" height="5" x="161.5" y="31.5" rx="2.5" transform="rotate(54, 248, 34)" opacity="0.66"></rect><rect width="190" height="5" x="180" y="492.5" rx="2.5" transform="rotate(54, 275, 495)" opacity="0.39"></rect><rect width="43" height="5" x="750.5" y="135.5" rx="2.5" transform="rotate(54, 772, 138)" opacity="0.77"></rect><rect width="77" height="5" x="303.5" y="668.5" rx="2.5" transform="rotate(54, 342, 671)" opacity="0.81"></rect><rect width="77" height="5" x="576.5" y="415.5" rx="2.5" transform="rotate(54, 615, 418)" opacity="0.78"></rect><rect width="101" height="5" x="-23.5" y="50.5" rx="2.5" transform="rotate(54, 27, 53)" opacity="0.70"></rect><rect width="119" height="5" x="484.5" y="156.5" rx="2.5" transform="rotate(54, 544, 159)" opacity="0.26"></rect><rect width="197" height="5" x="118.5" y="540.5" rx="2.5" transform="rotate(54, 217, 543)" opacity="0.74"></rect><rect width="48" height="5" x="285" y="28.5" rx="2.5" transform="rotate(54, 309, 31)" opacity="0.42"></rect><rect width="85" height="5" x="21.5" y="296.5" rx="2.5" transform="rotate(54, 64, 299)" opacity="0.52"></rect><rect width="371" height="5" x="255.5" y="381.5" rx="2.5" transform="rotate(54, 441, 384)" opacity="0.81"></rect><rect width="423" height="5" x="200.5" y="297.5" rx="2.5" transform="rotate(54, 412, 300)" opacity="0.64"></rect><rect width="98" height="5" x="-18" y="159.5" rx="2.5" transform="rotate(54, 31, 162)" opacity="0.82"></rect><rect width="137" height="5" x="480.5" y="425.5" rx="2.5" transform="rotate(54, 549, 428)" opacity="0.67"></rect><rect width="115" height="5" x="616.5" y="396.5" rx="2.5" transform="rotate(54, 674, 399)" opacity="0.33"></rect><rect width="50" height="5" x="330" y="342.5" rx="2.5" transform="rotate(54, 355, 345)" opacity="0.80"></rect><rect width="513" height="5" x="140.5" y="748.5" rx="2.5" transform="rotate(54, 397, 751)" opacity="0.29"></rect><rect width="346" height="5" x="84" y="241.5" rx="2.5" transform="rotate(54, 257, 244)" opacity="0.09"></rect><rect width="56" height="5" x="3" y="643.5" rx="2.5" transform="rotate(54, 31, 646)" opacity="0.73"></rect><rect width="125" height="5" x="345.5" y="580.5" rx="2.5" transform="rotate(54, 408, 583)" opacity="0.20"></rect><rect width="106" height="5" x="367" y="646.5" rx="2.5" transform="rotate(54, 420, 649)" opacity="0.78"></rect><rect width="262" height="5" x="440" y="764.5" rx="2.5" transform="rotate(54, 571, 767)" opacity="0.75"></rect><rect width="67" height="5" x="665.5" y="451.5" rx="2.5" transform="rotate(54, 699, 454)" opacity="0.16"></rect><rect width="313" height="5" x="59.5" y="674.5" rx="2.5" transform="rotate(54, 216, 677)" opacity="0.30"></rect><rect width="123" height="5" x="248.5" y="386.5" rx="2.5" transform="rotate(54, 310, 389)" opacity="0.77"></rect><rect width="114" height="5" x="568" y="329.5" rx="2.5" transform="rotate(54, 625, 332)" opacity="0.08"></rect><rect width="111" height="5" x="293.5" y="105.5" rx="2.5" transform="rotate(54, 349, 108)" opacity="0.34"></rect><rect width="262" height="5" x="-76" y="705.5" rx="2.5" transform="rotate(54, 55, 708)" opacity="0.17"></rect><rect width="271" height="5" x="363.5" y="582.5" rx="2.5" transform="rotate(54, 499, 585)" opacity="0.45"></rect><rect width="218" height="5" x="67" y="146.5" rx="2.5" transform="rotate(54, 176, 149)" opacity="0.80"></rect><rect width="138" height="5" x="477" y="704.5" rx="2.5" transform="rotate(54, 546, 707)" opacity="0.53"></rect><rect width="206" height="5" x="262" y="406.5" rx="2.5" transform="rotate(54, 365, 409)" opacity="0.72"></rect><rect width="250" height="5" x="-25" y="417.5" rx="2.5" transform="rotate(54, 100, 420)" opacity="0.68"></rect><rect width="268" height="5" x="50" y="601.5" rx="2.5" transform="rotate(54, 184, 604)" opacity="0.66"></rect><rect width="326" height="5" x="434" y="627.5" rx="2.5" transform="rotate(54, 597, 630)" opacity="0.12"></rect><rect width="61" height="5" x="-4.5" y="245.5" rx="2.5" transform="rotate(54, 26, 248)" opacity="0.92"></rect><rect width="43" height="5" x="421.5" y="468.5" rx="2.5" transform="rotate(54, 443, 471)" opacity="0.32"></rect></g></svg>