<svg xmlns="http://www.w3.org/2000/svg" data-name="Layer 1" viewBox="0 0 128 128"><path fill="#fff" d="M84 36H44a8 8 0 0 0-8 8v40a8 8 0 0 0 8 8h40a8 8 0 0 0 8-8V44a8 8 0 0 0-8-8ZM64 80a16 16 0 1 1 16-16 16 16 0 0 1-16 16Zm18-29a5 5 0 1 1 5-5 5 5 0 0 1-5 5Z"/><circle fill="#fff" cx="64" cy="64" r="8"/><path fill="#fff" d="M111.16 25.23 74 3.77a20 20 0 0 0-20 0L16.84 25.23a20 20 0 0 0-10 17.32v42.9a20 20 0 0 0 10 17.32L54 124.23a20 20 0 0 0 20 0l37.16-21.45a20 20 0 0 0 10-17.32V42.55a20 20 0 0 0-10-17.32ZM100 84a16 16 0 0 1-16 16H44a16 16 0 0 1-16-16V44a16 16 0 0 1 16-16h40a16 16 0 0 1 16 16Z"/></svg>