<svg xmlns="http://www.w3.org/2000/svg" data-name="Layer 1" viewBox="0 0 128 128"><path fill="#fff" d="M6.84 42.55v42.9a20 20 0 0 0 10 17.32L54 124.23a20 20 0 0 0 20 0l37.16-21.45a20 20 0 0 0 10-17.32V42.55a20 20 0 0 0-10-17.32L74 3.77a20 20 0 0 0-20 0L16.84 25.23a20 20 0 0 0-10 17.32Z"/><path fill="#9f70d2" fill-rule="evenodd" d="M98.62 53.92c-.49-6.75-1.72-13.72-10.35-14.23a426.5 426.5 0 0 0-48.55 0c-8.63.5-9.86 7.48-10.35 14.23a135 135 0 0 0 0 20.16c.49 6.75 1.72 13.72 10.35 14.23a426.5 426.5 0 0 0 48.55 0c8.63-.5 9.86-7.48 10.35-14.23a135 135 0 0 0 0-20.16ZM57 73V53l19 10Z"/></svg>